<svg xmlns="http://www.w3.org/2000/svg" viewBox="0 0 240 240" width="240" height="240">
  <rect width="240" height="240" fill="#eef3fc"/>
  <g fill="none" stroke="#6592e6" stroke-width="5" stroke-linecap="round">
    <path d="M 90,30 C 130,70 90,105 130,140 C 170,175 130,210 170,210" transform="translate(-30,0)"/>
    <path d="M 170,30 C 130,70 170,105 130,140 C 90,175 130,210 90,210" transform="translate(-30,0)"/>
    <path d="M 74,52 L 146,52" transform="translate(-30,0)"/>
    <path d="M 84,86 L 136,86" transform="translate(-30,0)"/>
    <path d="M 90,120 L 130,120" transform="translate(-30,0)"/>
    <path d="M 84,154 L 136,154" transform="translate(-30,0)"/>
    <path d="M 74,188 L 146,188" transform="translate(-30,0)"/>
  </g>
</svg>
